@startuml

title __JUNIT4's Class Diagram__\n

  package org.concordion {
    package org.concordion.integration {
      package org.concordion.integration.junit4 {
        class ConcordionFrameworkMethod {
            {static} - CONCORDION_METHOD : Method
            - exampleName : String
            - notifier : RunNotifier
            + ConcordionFrameworkMethod()
            + setNotifier()
            + getNotifier()
            + method()
            + getExampleName()
            + invokeExplosively()
            + equals()
            + hashCode()
        }
      }
    }
  }
  

  package org.concordion {
    package org.concordion.integration {
      package org.concordion.integration.junit4 {
        interface ConcordionRunnerInterface {
            {abstract} + invoke()
        }
      }
    }
  }
  

  package org.concordion {
    package org.concordion.integration {
      package org.concordion.integration.junit4 {
        class ConcordionRunner {
            - runResultsCache : RunResultsCache
            + concordionRunnerInterface : ConcordionRunnerInterface
            - fixtureClass : Class<?>
            - fixtureRunner : FixtureRunner
            - concordion : Concordion
            - concordionFrameworkMethods : List<ConcordionFrameworkMethod>
            - failFastException : FailFastException
            - setupFixture : Fixture
            {static} - suiteDepth : AtomicInteger
            - firstTest : boolean
            + ConcordionRunner()
            # getSpecificationLocator()
            - verifyUniqueExampleMethods()
            # createTest()
            # createFixture()
            + run()
            # getChildren()
            # describeChild()
            # runChild()
            ~ invoke()
            # validateInstanceMethods()
        }
      }
    }
  }
  

  package org.concordion {
    package org.concordion.integration {
      package org.concordion.integration.junit4 {
        class JUnit4FrameworkProvider {
            + isConcordionFixture()
        }
      }
    }
  }
  

  ConcordionFrameworkMethod o-- ConcordionRunnerInterface : runner
  ConcordionFrameworkMethod +-down- ConcordionRunnerInterface
  JUnit4FrameworkProvider -up-|> TestFrameworkProvider


right footer


PlantUML diagram generated by SketchIt! (https://bitbucket.org/pmesmeur/sketch.it)
For more information about this tool, please contact philippe.mesmeur@gmail.com
endfooter

@enduml
